#N canvas 393 141 611 623 10;
#X obj 112 249 dac~;
#X obj 111 100 osc~ 400;
#X obj 170 100 osc~ 440;
#X obj 228 100 osc~ 480;
#X obj 286 100 osc~ 520;
#X obj 111 160 *~ 0.25;
#X msg 111 -9 \$1 10;
#X obj 134 -71 vsl 15 50 0 1 0 0 empty empty A 0 -9 0 10 -262130 -1
-1 0 1;
#X obj 111 16 line~ 0 10;
#X msg 207 -8 \$1 10;
#X obj 238 -78 vsl 15 50 0 1 0 0 empty empty B 0 -9 0 10 -262130 -1
-1 0 1;
#X obj 207 17 line~ 0 10;
#X obj 111 -117 r Channel-A;
#X obj 207 -117 r Channel-B;
#X obj 111 42 *~ 1000;
#X obj 136 -268 loadbang;
#X obj 207 42 *~ 1000;
#X msg 320 -9 \$1 10;
#X obj 343 -71 vsl 8 50 0 1 0 0 empty empty C 0 -9 0 10 -262130 -1
-1 0 1;
#X obj 320 16 line~ 0 10;
#X msg 416 -8 \$1 10;
#X obj 447 -78 vsl 15 50 0 1 0 0 empty empty D 0 -9 0 10 -262130 -1
-1 0 1;
#X obj 416 17 line~ 0 10;
#X obj 320 46 *~ 1000;
#X obj 416 42 *~ 1000;
#X obj 320 -117 r Channel-C;
#X obj 416 -117 r Channel-D;
#X msg 136 -240 0.4;
#X msg 167 -240 0.44;
#X msg 206 -240 0.48;
#X msg 246 -240 0.52;
#X text 286 -213 this has the same problem of multiple oscillators
into the *~ object;
#X connect 1 0 5 0;
#X connect 2 0 5 0;
#X connect 3 0 5 0;
#X connect 4 0 5 0;
#X connect 5 0 0 0;
#X connect 5 0 0 1;
#X connect 6 0 8 0;
#X connect 7 0 6 0;
#X connect 8 0 14 0;
#X connect 9 0 11 0;
#X connect 10 0 9 0;
#X connect 11 0 16 0;
#X connect 12 0 6 0;
#X connect 13 0 9 0;
#X connect 14 0 1 0;
#X connect 15 0 27 0;
#X connect 15 0 28 0;
#X connect 15 0 29 0;
#X connect 15 0 30 0;
#X connect 16 0 2 0;
#X connect 17 0 19 0;
#X connect 18 0 17 0;
#X connect 19 0 23 0;
#X connect 20 0 22 0;
#X connect 21 0 20 0;
#X connect 22 0 24 0;
#X connect 23 0 3 0;
#X connect 24 0 4 0;
#X connect 25 0 17 0;
#X connect 26 0 20 0;
#X connect 27 0 6 0;
#X connect 28 0 9 0;
#X connect 29 0 17 0;
#X connect 30 0 20 0;
