#N canvas 658 382 450 300 10;
#X msg 37 138 \$1 10;
#X obj 37 163 line~ 0 10;
#X msg 109 139 \$1 10;
#X obj 109 164 line~ 0 10;
#X msg 220 137 \$1 10;
#X obj 220 162 line~ 0 10;
#X msg 312 136 \$1 10;
#X obj 312 161 line~ 0 10;
#X obj 36 104 r Channel-A;
#X obj 116 108 r Channel-B;
#X obj 220 108 r Channel-C;
#X obj 312 109 r Channel-D;
#X obj 38 261 outlet~;
#X obj 108 263 outlet~;
#X obj 227 258 outlet~;
#X obj 320 259 outlet~;
#X connect 0 0 1 0;
#X connect 1 0 12 0;
#X connect 2 0 3 0;
#X connect 3 0 13 0;
#X connect 4 0 5 0;
#X connect 5 0 14 0;
#X connect 6 0 7 0;
#X connect 7 0 15 0;
#X connect 8 0 0 0;
#X connect 9 0 2 0;
#X connect 10 0 4 0;
#X connect 11 0 6 0;
