#N canvas 648 219 619 538 10;
#X obj 60 232 *~;
#X obj 180 270 dac~;
#X obj 102 235 *~;
#X obj 263 231 *~;
#X obj 305 232 *~;
#X text 34 46 Simple Stereo Mixer as a Tannhauser test for the OWL
;
#X obj 171 195 adc~;
#X obj 174 123 knobs;
#X text 35 69 Implementation with a subpatch;
#X connect 0 0 1 0;
#X connect 2 0 1 1;
#X connect 3 0 1 0;
#X connect 4 0 1 1;
#X connect 6 0 0 1;
#X connect 6 0 2 1;
#X connect 6 1 3 1;
#X connect 6 1 4 1;
#X connect 7 0 0 0;
#X connect 7 1 2 0;
#X connect 7 2 3 0;
#X connect 7 3 4 0;
